<svg xmlns="http://www.w3.org/2000/svg" viewBox="0 0 100 100">
  <rect width="100" height="100" fill="#fafafa"/>
  <g stroke="#1a1a1a" stroke-width="0.6" stroke-linecap="round" fill="none">
    <path d="M70 20 L30 20 L30 80 L70 80"/>
    <path d="M70 23 L33 23 L33 77 L70 77"/>
    <path d="M70 26 L36 26 L36 74 L70 74"/>
    <path d="M70 29 L39 29 L39 71 L70 71"/>
    <path d="M70 32 L42 32 L42 68 L70 68"/>
    <path d="M70 35 L45 35 L45 65 L70 65"/>
    <path d="M70 38 L48 38 L48 62 L70 62"/>
    <path d="M70 41 L51 41 L51 59 L70 59"/>
    <path d="M70 44 L54 44 L54 56 L70 56"/>
    <path d="M70 47 L57 47 L57 53 L70 53"/>
  </g>
  <!-- 切り込みの線 -->
  <line x1="25" y1="14" x2="64" y2="52" stroke="#fafafa" stroke-width="2"/>
  <line x1="25" y1="86" x2="64" y2="48" stroke="#fafafa" stroke-width="2"/>
</svg>
